<?xml version="1.0" encoding="UTF-8" standalone="no"?>
<!DOCTYPE svg PUBLIC "-//W3C//DTD SVG 1.1//EN" "http://www.w3.org/Graphics/SVG/1.1/DTD/svg11.dtd">
<svg width="100%" height="100%" viewBox="0 0 550 550" version="1.1" xmlns="http://www.w3.org/2000/svg" xmlns:xlink="http://www.w3.org/1999/xlink" xml:space="preserve" xmlns:serif="http://www.serif.com/" style="fill-rule:evenodd;clip-rule:evenodd;stroke-linejoin:round;stroke-miterlimit:2;">
    <g transform="matrix(1,0,0,2.26684,0,-43.5475)">
        <rect x="103.125" y="34.375" width="114.583" height="212.3" style="fill:rgb(251,192,45);"/>
    </g>
    <rect x="332.292" y="148.958" width="114.583" height="252.083" style="fill:rgb(30,136,229);"/>
    <g transform="matrix(1,0,0,1.18076,-5.68434e-14,42.0893)">
        <rect x="217.708" y="304" width="114.583" height="97.042" style="fill:rgb(76,175,80);"/>
    </g>
    <g transform="matrix(1,0,0,1.18076,0,-324.577)">
        <rect x="217.708" y="304" width="114.583" height="97.042" style="fill:rgb(251,192,45);"/>
    </g>
    <g transform="matrix(1.38778e-17,1,-1,1.38778e-17,481.25,68.75)">
        <path d="M446.875,148.958L332.292,148.958L332.292,34.375L446.875,148.958Z" style="fill:rgb(21,101,192);fill-rule:nonzero;"/>
    </g>
    <path d="M446.875,148.958L332.292,148.958L332.292,34.375L446.875,148.958Z" style="fill:rgb(229,57,53);fill-rule:nonzero;"/>
</svg>
